# Blender v2.82 (sub 7) OBJ File: 'david_boom.blend'
# www.blender.org
v 0.000000 0.000000 -1.000000
v -0.866025 0.000000 -0.500000
v -0.866025 0.000000 0.500000
v 0.000000 0.000000 1.000000
v 0.866025 0.000000 0.500000
v 0.866025 0.000000 -0.500000
v 0.483411 5.000000 -1.375162
v -0.177814 5.000000 -0.993403
v -0.177814 5.000000 -0.229886
v 0.483411 5.000000 0.151872
v 1.144636 5.000000 -0.229886
v 1.144636 5.000000 -0.993403
v 0.530056 10.000000 -0.728737
v 0.015242 10.000000 -0.431509
v 0.015242 10.000000 0.162947
v 0.530056 10.000000 0.460175
v 1.044870 10.000000 0.162947
v 1.044870 10.000000 -0.431509
v -0.076686 13.904090 -0.786702
v -0.413630 13.904090 -0.592168
v -0.413630 13.904090 -0.203099
v -0.076686 13.904090 -0.008564
v 0.260257 13.904090 -0.203099
v 0.260257 13.904090 -0.592168
v 0.000000 11.198985 2.825870
v 2.898659 14.254120 2.756444
v -1.107167 15.172301 3.678987
v -3.582964 12.768504 1.263771
v -1.107167 10.364706 -1.151444
v 2.898659 11.282887 -0.228901
v 1.107167 17.711849 1.151444
v -2.898659 16.793667 0.228901
v -2.898659 13.822435 -2.756444
v 1.107167 12.904254 -3.678987
v 3.582964 15.308051 -1.263771
v 0.000000 16.877571 -2.825870
v 1.747346 11.186832 3.159597
v 3.890899 10.427872 1.031006
v 0.928598 10.862056 0.171972
v -0.902250 9.725362 2.420921
v 0.928598 8.588669 4.669870
v 3.890899 9.022853 3.810836
v 2.566094 8.497334 -1.023237
v -0.396207 8.063148 -0.164203
v -0.396207 6.658130 2.615628
v 2.566094 6.223946 3.474661
v 4.396942 7.324002 0.908187
v 1.747346 5.899169 0.487036
v -1.249309 13.961533 -1.145245
v 1.740886 12.902804 -4.114569
v -2.391439 13.508480 -5.312896
v -4.945419 11.922824 -2.175678
v -2.391439 10.337169 0.961543
v 1.740886 10.942844 -0.236786
v -0.107179 10.209759 -6.980178
v -4.239504 9.604083 -5.781851
v -4.239504 7.644123 -1.904067
v -0.107179 7.038448 -0.705740
v 2.446801 8.624104 -3.842958
v -1.249309 6.585394 -4.873392
vt 0.000000 0.000000
vt 0.000000 0.000000
vt 0.000000 0.000000
vt 0.000000 0.000000
vt 0.000000 0.000000
vt 0.000000 0.000000
vt 0.000000 0.000000
vt 0.000000 0.000000
vt 0.000000 0.000000
vt 0.000000 0.000000
vt 0.000000 0.000000
vt 0.000000 0.000000
vt 0.000000 0.000000
vt 0.000000 0.000000
vt 0.000000 0.000000
vt 0.000000 0.000000
vt 0.000000 0.000000
vt 0.000000 0.000000
vt 0.000000 0.000000
vt 0.000000 0.000000
vt 0.000000 0.000000
vt 0.000000 0.000000
vt 0.000000 0.000000
vt 0.818181 0.000000
vt 0.727272 0.157461
vt 0.909090 0.157461
vt 0.636363 0.000000
vt 0.545454 0.157461
vt 0.090909 0.000000
vt 0.000000 0.157461
vt 0.181818 0.157461
vt 0.272727 0.000000
vt 0.363636 0.157461
vt 0.454545 0.000000
vt 0.636363 0.314921
vt 0.818181 0.314921
vt 0.090909 0.314921
vt 0.272727 0.314921
vt 0.454545 0.314921
vt 1.000000 0.314921
vt 0.727272 0.472382
vt 0.909090 0.472382
vt 0.181818 0.472382
vt 0.363636 0.472382
vt 0.545454 0.472382
vt 0.818181 0.000000
vt 0.727272 0.157461
vt 0.909090 0.157461
vt 0.636363 0.000000
vt 0.545454 0.157461
vt 0.090909 0.000000
vt 0.000000 0.157461
vt 0.181818 0.157461
vt 0.272727 0.000000
vt 0.363636 0.157461
vt 0.454545 0.000000
vt 0.636363 0.314921
vt 0.818181 0.314921
vt 0.090909 0.314921
vt 0.272727 0.314921
vt 0.454545 0.314921
vt 1.000000 0.314921
vt 0.727272 0.472382
vt 0.909090 0.472382
vt 0.181818 0.472382
vt 0.363636 0.472382
vt 0.545454 0.472382
vt 0.818181 0.000000
vt 0.727272 0.157461
vt 0.909090 0.157461
vt 0.636363 0.000000
vt 0.545454 0.157461
vt 0.090909 0.000000
vt 0.000000 0.157461
vt 0.181818 0.157461
vt 0.272727 0.000000
vt 0.363636 0.157461
vt 0.454545 0.000000
vt 0.636363 0.314921
vt 0.818181 0.314921
vt 0.090909 0.314921
vt 0.272727 0.314921
vt 0.454545 0.314921
vt 1.000000 0.314921
vt 0.727272 0.472382
vt 0.909090 0.472382
vt 0.181818 0.472382
vt 0.363636 0.472382
vt 0.545454 0.472382
vt 0.000000 0.000000
vn 0.9985 -0.0556 0.0000
vn -0.4907 0.1916 0.8500
vn -0.4999 -0.0166 -0.8659
vn 0.4968 -0.1126 -0.8605
vn 0.4976 0.0981 0.8618
vn -0.9907 0.1364 0.0000
vn 0.9998 0.0199 0.0000
vn -0.4994 -0.0487 0.8650
vn -0.4966 0.1158 -0.8602
vn 0.4971 0.1067 -0.8611
vn 0.4992 -0.0580 0.8646
vn -0.9993 0.0386 0.0000
vn 0.4919 0.1788 0.8521
vn -0.9940 -0.1092 0.0000
vn 0.9804 0.1970 0.0000
vn -0.4998 0.0263 0.8657
vn -0.4980 -0.0902 -0.8625
vn 0.4990 0.0647 -0.8642
vn 0.1876 -0.1560 0.9698
vn 0.6071 -0.5632 0.5606
vn -0.4911 -0.3115 0.8135
vn -0.4911 -0.8150 0.3077
vn 0.1876 -0.9705 0.1514
vn 0.9822 -0.1330 0.1323
vn 0.3035 0.5260 0.7945
vn -0.7946 0.2743 0.5416
vn -0.7946 -0.5402 -0.2769
vn 0.3035 -0.7920 -0.5298
vn 0.7946 0.5402 0.2769
vn -0.3035 0.7920 0.5298
vn -0.9822 0.1330 -0.1323
vn -0.3035 -0.5260 -0.7945
vn 0.7946 -0.2743 -0.5416
vn 0.4911 0.8150 -0.3077
vn -0.1876 0.9705 -0.1514
vn -0.6071 0.5632 -0.5606
vn -0.1876 0.1560 -0.9698
vn 0.4911 0.3115 -0.8135
vn 0.1876 0.9696 -0.1568
vn 0.6071 0.7092 0.3585
vn -0.4911 0.8702 0.0400
vn -0.4911 0.5482 0.6769
vn 0.1876 0.4488 0.8737
vn 0.9843 0.1573 0.0795
vn 0.3035 0.5888 -0.7491
vn -0.7946 0.4279 -0.4307
vn -0.7946 -0.0930 0.5999
vn 0.3035 -0.2540 0.9183
vn 0.7613 0.1491 -0.6311
vn -0.3035 0.2540 -0.9183
vn -0.9822 -0.1674 -0.0846
vn -0.3035 -0.5888 0.7491
vn 0.8115 -0.4315 0.3940
vn 0.4119 -0.5515 -0.7254
vn -0.1876 -0.4488 -0.8737
vn -0.6071 -0.7092 -0.3585
vn -0.1876 -0.9696 0.1568
vn 0.4777 -0.8778 -0.0355
vn 0.9822 0.1674 0.0846
vn 0.7946 0.0930 -0.5999
vn 0.7946 -0.4279 0.4307
vn 0.4911 -0.5482 -0.6769
vn 0.4911 -0.8702 -0.0400
s off
f 6/1/1 11/2/1 5/3/1
f 4/4/2 9/5/2 3/6/2
f 8/7/3 1/8/3 2/9/3
f 7/10/4 6/1/4 1/8/4
f 5/3/5 10/11/5 4/4/5
f 9/5/6 2/9/6 3/6/6
f 18/12/7 11/2/7 12/13/7
f 10/11/8 15/14/8 9/5/8
f 8/7/9 13/15/9 7/10/9
f 13/15/10 12/13/10 7/10/10
f 17/16/11 10/11/11 11/2/11
f 9/5/12 14/17/12 8/7/12
f 23/18/13 16/19/13 17/16/13
f 21/20/14 14/17/14 15/14/14
f 18/12/15 23/18/15 17/16/15
f 22/21/16 15/14/16 16/19/16
f 14/17/17 19/22/17 13/15/17
f 13/15/18 24/23/18 18/12/18
f 25/24/19 26/25/19 27/26/19
f 26/25/20 25/27/20 30/28/20
f 25/29/21 27/30/21 28/31/21
f 25/32/22 28/31/22 29/33/22
f 25/34/23 29/33/23 30/28/23
f 26/25/24 30/28/24 35/35/24
f 27/26/25 26/25/25 31/36/25
f 28/31/26 27/30/26 32/37/26
f 29/33/27 28/31/27 33/38/27
f 30/28/28 29/33/28 34/39/28
f 26/25/29 35/35/29 31/36/29
f 27/26/30 31/36/30 32/40/30
f 28/31/31 32/37/31 33/38/31
f 29/33/32 33/38/32 34/39/32
f 30/28/33 34/39/33 35/35/33
f 31/36/34 35/35/34 36/41/34
f 32/40/35 31/36/35 36/42/35
f 33/38/36 32/37/36 36/43/36
f 34/39/37 33/38/37 36/44/37
f 35/35/38 34/39/38 36/45/38
f 37/46/39 38/47/39 39/48/39
f 38/47/40 37/49/40 42/50/40
f 37/51/41 39/52/41 40/53/41
f 37/54/42 40/53/42 41/55/42
f 37/56/43 41/55/43 42/50/43
f 38/47/44 42/50/44 47/57/44
f 39/48/45 38/47/45 43/58/45
f 40/53/46 39/52/46 44/59/46
f 41/55/47 40/53/47 45/60/47
f 42/50/48 41/55/48 46/61/48
f 38/47/49 47/57/49 43/58/49
f 39/48/50 43/58/50 44/62/50
f 40/53/51 44/59/51 45/60/51
f 41/55/52 45/60/52 46/61/52
f 42/50/53 46/61/53 47/57/53
f 43/58/54 47/57/54 48/63/54
f 44/62/55 43/58/55 48/64/55
f 45/60/56 44/59/56 48/65/56
f 46/61/57 45/60/57 48/66/57
f 47/57/58 46/61/58 48/67/58
f 49/68/39 50/69/39 51/70/39
f 50/69/40 49/71/40 54/72/40
f 49/73/41 51/74/41 52/75/41
f 49/76/42 52/75/42 53/77/42
f 49/78/43 53/77/43 54/72/43
f 50/69/59 54/72/59 59/79/59
f 51/70/45 50/69/45 55/80/45
f 52/75/46 51/74/46 56/81/46
f 53/77/47 52/75/47 57/82/47
f 54/72/48 53/77/48 58/83/48
f 50/69/60 59/79/60 55/80/60
f 51/70/50 55/80/50 56/84/50
f 52/75/51 56/81/51 57/82/51
f 53/77/52 57/82/52 58/83/52
f 54/72/61 58/83/61 59/79/61
f 55/80/62 59/79/62 60/85/62
f 56/84/55 55/80/55 60/86/55
f 57/82/56 56/81/56 60/87/56
f 58/83/57 57/82/57 60/88/57
f 59/79/63 58/83/63 60/89/63
f 6/1/1 12/13/1 11/2/1
f 4/4/2 10/11/2 9/5/2
f 8/7/3 7/10/3 1/8/3
f 7/10/4 12/13/4 6/1/4
f 5/3/5 11/2/5 10/11/5
f 9/5/6 8/7/6 2/9/6
f 18/12/7 17/16/7 11/2/7
f 10/11/8 16/19/8 15/14/8
f 8/7/9 14/17/9 13/15/9
f 13/15/10 18/12/10 12/13/10
f 17/16/11 16/19/11 10/11/11
f 9/5/12 15/14/12 14/17/12
f 23/18/13 22/21/13 16/19/13
f 21/20/14 20/90/14 14/17/14
f 18/12/15 24/23/15 23/18/15
f 22/21/16 21/20/16 15/14/16
f 14/17/17 20/90/17 19/22/17
f 13/15/18 19/22/18 24/23/18
